<?xml version="1.0" encoding="UTF-8"?>
<svg version="1.1" xmlns="http://www.w3.org/2000/svg" width="262" height="267">
<path d="M0 0 C4.02705297 2.32141349 7.34056978 4.69046004 10.3125 8.3125 C10.993125 9.034375 11.67375 9.75625 12.375 10.5 C23.29713196 26.35470768 18.3125 40.9494824 18.3125 61.3125 C46.3625 61.3125 74.4125 61.3125 103.3125 61.3125 C102.9825 59.9925 102.6525 58.6725 102.3125 57.3125 C102.11312115 53.10543863 102.12669536 48.89921039 102.12719727 44.68774414 C102.1250256 42.64903413 102.10689235 40.61087897 102.08789062 38.57226562 C102.06906875 25.8549496 103.35182361 15.99122511 112.16796875 6.265625 C119.9217182 -0.97739844 127.29494999 -3.37980986 137.86083984 -3.29443359 C147.21777818 -2.85965844 154.31610348 0.85154359 160.8125 7.5625 C168.13027323 16.74020726 169.51580589 25.70561192 168.3125 37.3125 C166.62192368 45.06801887 162.33035644 51.20998095 156.3125 56.3125 C139.48977998 66.82118075 125.96933514 63.3125 104.3125 63.3125 C104.3125 91.0325 104.3125 118.7525 104.3125 147.3125 C116.8525 147.3125 129.3925 147.3125 142.3125 147.3125 C153.64794856 151.84667942 160.68995634 155.568786 166.3125 166.3125 C169.76165192 174.82354723 169.8346822 185.77776095 166.3359375 194.33203125 C161.56058748 203.57288033 154.38920668 208.81670976 144.8125 212.75 C134.4859762 214.4096199 125.8178473 213.30258103 116.796875 207.76953125 C107.98755854 201.39590328 104.36970571 193.83861812 102.3125 183.3125 C101.96079335 178.90574344 101.98054697 174.54278034 102.0625 170.125 C102.06765625 169.00158203 102.0728125 167.87816406 102.078125 166.72070312 C102.13407033 160.76602169 102.56745839 155.27283287 103.3125 149.3125 C75.2625 149.3125 47.2125 149.3125 18.3125 149.3125 C18.3125 161.5225 18.3125 173.7325 18.3125 186.3125 C14.22456366 197.55432494 10.72728961 204.84497921 0 210.375 C-8.26092176 214.11303384 -17.32933343 214.89890579 -25.9375 211.6875 C-35.93646912 207.13812981 -42.41799647 200.39494261 -46.6875 190.3125 C-49.22369099 182.14032904 -48.10823372 173.04130062 -44.6875 165.3125 C-39.7915113 156.98931922 -33.30068239 151.34668415 -24.20727539 148.15527344 C-16.77629252 146.37600224 -9.10459305 146.6251252 -1.5 146.5625 C0.23245101 146.53428788 1.96487487 146.5043533 3.69726562 146.47265625 C7.90229423 146.39941769 12.10700253 146.3494658 16.3125 146.3125 C16.30669922 145.32596436 16.30089844 144.33942871 16.29492188 143.32299805 C16.23506132 127.65944746 16.51701651 112.00062022 16.77606201 96.33990479 C16.83750796 92.60487646 16.89718524 88.86981987 16.95703125 85.13476562 C17.07383367 77.86064904 17.19252974 70.5865651 17.3125 63.3125 C16.29414062 63.32297363 15.27578125 63.33344727 14.2265625 63.34423828 C10.41719127 63.38067446 6.60783519 63.4034857 2.79833984 63.42236328 C1.15540977 63.43236737 -0.48750274 63.44597494 -2.13037109 63.46337891 C-4.50362505 63.48787515 -6.87664185 63.49903917 -9.25 63.5078125 C-9.97429199 63.51813507 -10.69858398 63.52845764 -11.44482422 63.53909302 C-21.78058346 63.54132312 -31.28823272 60.1663137 -39.015625 53.21875 C-45.70811995 45.58805482 -48.08510809 37.21364601 -47.96484375 27.28515625 C-47.198842 19.07491209 -43.62823175 11.07664949 -37.6875 5.3125 C-26.31266353 -2.88541585 -13.10664545 -6.32566387 0 0 Z " fill="#000000" transform="translate(67.6875,28.6875)"/>
<path d="" fill="#000000" transform="translate(0,0)"/>
<path d="" fill="#000000" transform="translate(0,0)"/>
</svg>
